<?xml version="1.0" encoding="iso-8859-1"?>
<!-- Generator: Adobe Illustrator 19.0.0, SVG Export Plug-In . SVG Version: 6.00 Build 0)  -->
<svg version="1.1" id="Capa_1" xmlns="http://www.w3.org/2000/svg" xmlns:xlink="http://www.w3.org/1999/xlink" x="0px" y="0px"
	 viewBox="0 0 512 512" style="enable-background:new 0 0 512 512;" xml:space="preserve">
<g>
	<path style="fill:#805333;" d="M329.763,403.525v95.458c0,4.793-3.885,8.678-8.678,8.678H182.237c-4.793,0-8.678-3.885-8.678-8.678
		v-95.458H329.763z"/>
	<path style="fill:#CC4B4C;" d="M439.452,377.492c-1.732-3.769-4.111-7.206-7.029-10.153l-33.237-33.237v-17.356H104.136v17.356
		l-33.237,33.237c-6.502,6.52-10.153,15.351-10.153,24.559v20.306c0.029,9.574,7.782,17.327,17.356,17.356H425.22
		c9.574-0.029,17.327-7.782,17.356-17.356v-20.306C442.563,386.929,441.498,382.019,439.452,377.492z"/>
	<path style="fill:#802F34;" d="M442.576,391.897v20.306c-0.029,9.574-7.782,17.327-17.356,17.356H78.102
		c-9.574-0.029-17.327-7.782-17.356-17.356v-20.306c0.013-4.968,1.078-9.878,3.124-14.405h375.582
		C441.498,382.019,442.563,386.929,442.576,391.897z"/>
	<path style="fill:#805333;" d="M8.678,229.966h121.492v60.746H8.678c-4.793,0-8.678-3.885-8.678-8.678v-43.39
		C0,233.851,3.885,229.966,8.678,229.966z"/>
	<path style="fill:#E64C3C;" d="M459.932,151.864c-4.793,0-8.678-3.885-8.678-8.678v-43.39c-0.001-3.737,2.39-7.055,5.936-8.235
		l26.034-8.678c4.553-1.514,9.472,0.949,10.986,5.502s-0.949,9.472-5.502,10.986l-20.098,6.682v37.133
		C468.61,147.979,464.725,151.864,459.932,151.864z"/>
	<path style="fill:#805333;" d="M381.831,229.966h112.814c4.793,0,8.678,3.885,8.678,8.678v43.39c0,4.793-3.885,8.678-8.678,8.678
		H381.831V229.966z"/>
	<polygon style="fill:#4482C3;" points="494.644,143.186 485.966,229.966 442.576,229.966 433.898,143.186 	"/>
	<path style="fill:#D1D4D1;" d="M503.322,151.864H425.22c-4.793,0-8.678-3.885-8.678-8.678s3.885-8.678,8.678-8.678h78.102
		c4.793,0,8.678,3.885,8.678,8.678S508.115,151.864,503.322,151.864z"/>
	<path style="fill:#E64C3C;" d="M389.12,37.749c-12.569-20.764-35.086-33.438-59.357-33.41H173.559
		c-38.342,0-69.424,31.082-69.424,69.424v260.339h295.051V73.763C399.181,61.064,395.7,48.61,389.12,37.749z"/>
	<g>
		<path style="fill:#C03A2B;" d="M389.12,37.749l-66.734,95.978c-4.892-5.052-11.625-7.902-18.658-7.897H199.593
			c-7.032-0.005-13.766,2.845-18.658,7.897l-66.734-95.978c12.569-20.764,35.086-33.438,59.357-33.41h156.203
			C354.034,4.312,376.551,16.985,389.12,37.749z"/>
		<rect x="173.559" y="238.644" style="fill:#C03A2B;" width="156.203" height="95.458"/>
	</g>
	<path style="fill:#802F34;" d="M329.763,151.864v86.78H173.559l0-86.78c-0.036-6.783,2.616-13.304,7.376-18.137
		c4.892-5.052,11.625-7.902,18.658-7.897h104.136C318.107,125.831,329.763,137.486,329.763,151.864z"/>
</g>
<g>
</g>
<g>
</g>
<g>
</g>
<g>
</g>
<g>
</g>
<g>
</g>
<g>
</g>
<g>
</g>
<g>
</g>
<g>
</g>
<g>
</g>
<g>
</g>
<g>
</g>
<g>
</g>
<g>
</g>
</svg>
