<?xml version="1.0" encoding="iso-8859-1"?>
<!-- Generator: Adobe Illustrator 19.0.0, SVG Export Plug-In . SVG Version: 6.00 Build 0)  -->
<svg version="1.1" id="Capa_1" xmlns="http://www.w3.org/2000/svg" xmlns:xlink="http://www.w3.org/1999/xlink" x="0px" y="0px"
	 viewBox="0 0 512 512" style="enable-background:new 0 0 512 512;" xml:space="preserve">
<g>
	<g>
		<path d="M303.706,50.896c-4.156,0-7.525,3.369-7.525,7.525c0,4.156,3.369,7.525,7.525,7.525c13.032,0,23.633,10.602,23.633,23.635
			c0,4.156,3.369,7.525,7.525,7.525c4.156,0,7.525-3.369,7.525-7.525C342.39,68.251,325.037,50.896,303.706,50.896z"/>
	</g>
</g>
<g>
	<g>
		<path d="M303.706,0c-4.156,0-7.525,3.369-7.525,7.525c0,4.156,3.369,7.525,7.525,7.525c41.096,0,74.531,33.434,74.531,74.531
			c0,4.156,3.369,7.525,7.525,7.525c4.156,0,7.525-3.369,7.525-7.525C393.288,40.186,353.101,0,303.706,0z"/>
	</g>
</g>
<g>
	<g>
		<path d="M303.706,24.49c-4.156,0-7.525,3.369-7.525,7.525c0,4.156,3.369,7.525,7.525,7.525c27.593,0,50.04,22.447,50.04,50.04
			c0,4.156,3.369,7.525,7.525,7.525c4.156,0,7.525-3.369,7.525-7.525C368.797,53.69,339.598,24.49,303.706,24.49z"/>
	</g>
</g>
<g>
	<g>
		<path d="M192.012,103.876h-35.37c-4.433,0-8.027,3.594-8.027,8.027c0,4.433,3.593,8.027,8.027,8.027h35.37
			c4.433,0,8.027-3.594,8.027-8.027C200.039,107.47,196.445,103.876,192.012,103.876z"/>
	</g>
</g>
<g>
	<g>
		<circle cx="221.966" cy="111.906" r="7.131"/>
	</g>
</g>
<g>
	<g>
		<path d="M218.967,463.787h-52.2c-4.156,0-7.525,3.369-7.525,7.525c0,4.156,3.369,7.525,7.525,7.525h52.2
			c4.156,0,7.525-3.369,7.525-7.525C226.493,467.156,223.123,463.787,218.967,463.787z"/>
	</g>
</g>
<g>
	<g>
		<path d="M171.059,252.559c0-14.795,11.913-19.983,26.132-19.983c16.716,0,22.289,7.302,26.708,7.302
			c4.419,0,6.917-5.764,6.917-8.839c0-7.896-16.661-11.943-29.943-12.587v-23.704c0-4.156-3.369-7.525-7.525-7.525
			c-4.156,0-7.525,3.369-7.525,7.525v24.562c-15.813,2.75-30.904,12.031-30.904,34.787c0,46.691,63.215,29.206,63.215,67.827
			c0,15.948-10.568,23.826-26.708,23.826c-22.673,0-27.092-15.563-32.857-15.563c-3.65,0-7.109,4.996-7.109,8.839
			c0,7.53,13.251,19.365,34.363,21.404v23.947c0,4.156,3.369,7.525,7.525,7.525c4.156,0,7.525-3.369,7.525-7.525v-24.227
			c19.804-2.8,33.401-15.664,33.401-39.761C234.275,268.124,171.059,285.033,171.059,252.559z"/>
	</g>
</g>
<g>
	<g>
		<path d="M399.99,419.435c0.003-0.001,0.007-0.003,0.01-0.004c0.006-0.003,0.013-0.006,0.018-0.008
			C400.009,419.426,400,419.431,399.99,419.435z"/>
	</g>
</g>
<g>
	<g>
		<path d="M437.195,451.717l-9.532-21.833c-1.736-3.983-4.585-7.144-8.027-9.271c2.438-6.03,2.559-12.984-0.241-19.395l-26.7-61.236
			c-2.659-6.101-7.555-10.816-13.786-13.255c-6.231-2.448-13.024-2.328-19.124,0.331l-45.192,19.706l-2.097-4.806V114.142
			c0-22.516-18.322-40.837-40.837-40.837h-157.58c-22.516,0-40.837,18.322-40.837,40.837v356.639
			c0,22.516,18.322,40.837,40.837,40.837h133.258c4.154,0,7.525-3.371,7.525-7.525s-3.371-7.525-7.525-7.525H114.079
			c-14.218,0-25.787-11.569-25.787-25.787v-24.47h209.153v24.47c0,12.542-8.98,23.228-21.342,25.395
			c-4.094,0.722-6.823,4.626-6.111,8.719c0.722,4.094,4.626,6.833,8.719,6.111c19.576-3.442,33.784-20.359,33.784-40.225v-6.592
			c0.552,0.311,1.124,0.602,1.706,0.873c-1.314,4.606-1.003,9.462,0.923,13.887l9.522,21.843
			c4.183,9.586,15.358,13.714,24.593,9.652l78.293-34.135c4.575-1.987,8.097-5.649,9.923-10.295
			C439.282,461.37,439.182,456.293,437.195,451.717z M88.292,431.26L88.292,431.26V153.665h29.339c4.154,0,7.525-3.371,7.525-7.525
			c0-4.154-3.371-7.525-7.525-7.525H88.292v-24.472c0-14.218,11.569-25.787,25.787-25.787h157.58
			c14.218,0,25.787,11.569,25.787,25.787v24.472H147.732c-4.164,0-7.525,3.371-7.525,7.525c0,4.154,3.361,7.525,7.525,7.525h149.713
			v153.767l-12.783-29.319c-5.659-12.974-20.399-19.596-33.563-15.071c-14.994,5.132-22.184,22.009-15.974,36.242l33.422,76.648
			l-5.88-1.585c-22.539-6.354-42.098,17.565-30.673,38.399c3.502,6.401,9.512,11.218,16.485,13.204l18.633,5.308l0.006,0.002H88.292
			z M328.399,450.654c-0.03,0.01-0.05,0.02-0.08,0.03c-4.529,1.917-9.767-0.216-11.699-4.656l-4.124-9.452l-2.067-4.736
			c-1.555-3.582-4.616-6.261-8.378-7.325l-4.605-1.314l-44.56-12.693c-2.87-0.823-5.358-2.819-6.813-5.478
			c-4.624-8.443,3.43-17.794,12.251-15.221c0.336,0.084,0.145,0.029,0.058,0.005c0.268,0.074,2.259,0.62,12.052,3.266
			c10.768,2.903,20.549-8.314,14.679-19.365c-0.247-0.493-1.379-3.136-35.269-80.842c-1.224-2.799-1.204-5.9,0.04-8.729
			c3.844-8.783,16.162-8.547,20.057,0.381l27.503,63.072l5.639,12.933c1.689,3.873,6.237,5.976,10.566,4.154l52.547-22.917
			c2.177-0.943,4.605-0.983,6.843-0.1c2.238,0.873,3.993,2.559,4.937,4.736l26.7,61.226c1.977,4.525-0.1,9.813-4.626,11.78
			c-0.001,0-0.001,0.001-0.002,0.001c-0.001,0.001-0.002,0.001-0.002,0.001c-0.017,0.008-0.031,0.014-0.047,0.02
			c-0.018,0.008-0.04,0.017-0.068,0.029c0.001-0.001,0.003-0.001,0.004-0.002c-0.006,0.003-0.012,0.005-0.017,0.007
			c-0.017,0.008-0.038,0.017-0.06,0.026c-0.025,0.011-0.034,0.015-0.026,0.012C398.329,420.159,387.849,424.729,328.399,450.654z
			 M405.431,434.578c-0.023,0.01-0.052,0.023-0.09,0.039C405.378,434.6,405.408,434.588,405.431,434.578z M421.111,461.6
			l-78.283,34.135c-1.334,0.572-2.88-0.03-3.462-1.365l-9.522-21.843c-0.999-2.29,0.073-5.028,2.368-6.02
			c54.978-23.975,69.901-30.483,72.727-31.715c-0.777,0.339-2.111,0.921-2.267,0.989c0.124-0.054,1.204-0.525,4.251-1.853
			c0.572-0.251,1.184-0.371,1.776-0.371c1.776,0,3.512,1.044,4.254,2.739l9.522,21.843
			C423.053,459.461,422.458,461.013,421.111,461.6z"/>
	</g>
</g>
<g>
	<g>
		<path d="M402.672,435.781C402.654,435.789,402.654,435.789,402.672,435.781L402.672,435.781z"/>
	</g>
</g>
<g>
</g>
<g>
</g>
<g>
</g>
<g>
</g>
<g>
</g>
<g>
</g>
<g>
</g>
<g>
</g>
<g>
</g>
<g>
</g>
<g>
</g>
<g>
</g>
<g>
</g>
<g>
</g>
<g>
</g>
</svg>
